<?xml version="1.0" encoding="utf-8"?>
<!-- Generator: Adobe Illustrator 26.0.2, SVG Export Plug-In . SVG Version: 6.00 Build 0)  -->
<svg version="1.1" xmlns="http://www.w3.org/2000/svg" xmlns:xlink="http://www.w3.org/1999/xlink" x="0px" y="0px"
	 viewBox="0 0 90 30" style="enable-background:new 0 0 90 30;" xml:space="preserve">
<style type="text/css">
	.st0{fill:#FEFEFE;}
	.st1{fill:#24B290;}
	.st2{fill:#63666A;}
	.st3{fill:#64676B;}
	.st4{fill:#25B19B;}
	.st5{fill:#27ADC3;}
	.st6{fill:#29B1A8;}
	.st7{fill:#28AEBE;}
	.st8{fill:#27ADBE;}
	.st9{fill:#27AFB5;}
	.st10{fill:#26AEB9;}
	.st11{fill:#28AFB5;}
	.st12{fill:#24B295;}
	.st13{fill:#28AEC2;}
	.st14{fill:#24B197;}
	.st15{fill:#24B194;}
	.st16{fill:#28B0AA;}
	.st17{fill:#2AB1AD;}
	.st18{fill:#25B198;}
	.st19{fill:#26B0A4;}
	.st20{fill:#26AFAD;}
	.st21{fill:#66696D;}
	.st22{fill:#23B289;}
	.st23{fill:#2AB2A0;}
	.st24{fill:#2BB3A1;}
	.st25{fill:#2DB68D;}
	.st26{fill:#30B2B8;}
	.st27{fill:#29B48A;}
	.st28{fill:#2DAFCB;}
	.st29{fill:#2AB0B5;}
	.st30{fill:#2BAECB;}
	.st31{fill:#27ADBF;}
	.st32{fill:#25B294;}
	.st33{fill:#2FB692;}
	.st34{fill:#2EAFC9;}
</style>
<g id="Guides">
</g>
<g id="Image">
</g>
<g id="Paths">
	<path class="st0" d="M1.3685,16.4829c-0.3105-0.2174-0.517-0.4402-0.7325-0.6668c-0.011-0.0037-0.0201-0.0091-0.0311-0.0164
		c-0.0932-0.053-0.1644-0.1407-0.2503-0.2064c0.1242-0.0201,0.2283,0.0639,0.3343,0.1315c0.0128,0.011,0.0256,0.0219,0.0365,0.0347
		c0.0018,0,0.0018,0,0.0018,0c0.042,0.0365,0.084,0.0749,0.1242,0.1151c0.19,0.1772,0.3708,0.3672,0.5626,0.548
		c0.0037,0.0037,0.0073,0.0073,0.011,0.011c0.011,0.011,0.0219,0.0201,0.0329,0.0311c0.2265,0.232,0.4567,0.4603,0.6923,0.6832
		c0.0037,0.0037,0.0073,0.0091,0.0128,0.011c0.0219,0.0237,0.0457,0.0438,0.0676,0.0658c1.1929,1.1892,1.0211,1.2276,2.2122,0.0347
		c0.3836-0.3836,0.7709-0.7636,1.149-1.1527c0.7106-0.727,0.7124-0.8988,0.0311-1.6404c-0.1023-0.1114-0.2137-0.2119-0.3179-0.3215
		c-0.0164-0.0164-0.0329-0.0347-0.0493-0.0511c-0.011-0.0128-0.0219-0.0256-0.0365-0.0365
		c-0.221-0.2356-0.4494-0.4658-0.6832-0.6905c-0.0037-0.0037-0.0055-0.0055-0.0073-0.0091
		c-0.0128-0.011-0.0237-0.0237-0.0347-0.0347c-0.1534-0.1589-0.3069-0.3179-0.4676-0.4695
		c-0.0585-0.0585-0.1206-0.1151-0.1827-0.1681c-0.0274-0.0256-0.0548-0.0511-0.084-0.0749
		c-0.3708-0.2941-0.6065-0.0292-0.844,0.2046c-0.6193,0.612-1.2221,1.2404-1.8523,1.8395
		c-0.2229,0.2137-0.4055,0.5517-0.8147,0.4329v-0.0201c0.0146-0.0237,0.0329-0.0438,0.0511-0.0585
		c0.9042-0.8933,1.8267-1.7683,2.7054-2.6871c0.4256-0.4476,0.6905-0.3544,0.9499,0.126c0.2996,0.1882,0.5425,0.4311,0.7307,0.7325
		c0.2996,0.1863,0.5425,0.4293,0.7307,0.7307c0.1169,0.0932,0.243,0.1772,0.3489,0.2813c1.0065,0.9828,1.0065,1.012,0.0493,1.9674
		c-0.601,0.601-1.2422,1.1691-1.792,1.8158c-0.4786,0.5645-0.7764,0.4658-1.2586-0.0237c-0.232-0.2338-0.4421-0.4932-0.6649-0.738
		C1.8306,16.9798,1.595,16.7514,1.3685,16.4829z"/>
	<path class="st0" d="M1.8251,18.6586h1.5838c-0.5316,0.548-0.8933,0.8951-1.2257,1.2678c-0.464,0.5224-0.7453,0.4475-1.0412-0.1845
		C0.656,18.7042,0.6615,18.6604,1.8251,18.6586z"/>
	<path class="st0" d="M1.184,10.6867c0.2813-0.5754,0.5517-0.5572,0.9408-0.1498c0.3635,0.3818,0.7325,0.7563,1.3006,1.3427H1.9019
		C0.6688,11.8777,0.6396,11.7955,1.184,10.6867z"/>
	<path class="st0" d="M6.8468,10.4419c0.0767,1.4322,0.0749,1.4523-1.3646,1.423c-0.5846-0.011-1.1892,0.1662-1.7537-0.1297
		c-0.1078-0.0164-0.1534-0.0822-0.1443-0.1882c-0.106-0.137-0.0877-0.2923-0.0749-0.4457c-0.1041-0.7672-0.084-1.5345,0.0804-2.3017
		C3.5934,8.6846,3.6501,8.6188,3.767,8.6133C4.536,8.4471,5.3087,8.4398,6.0796,8.533c0.1608-0.0091,0.3215-0.0201,0.4695,0.0676
		h0.0018C7.225,9.1212,6.7427,9.8281,6.8468,10.4419z"/>
	<path class="st0" d="M4.5013,21.9412c-0.749,0.179-1.0906-0.1114-1.0266-0.8823c0.0566-0.6887-0.1114-1.3847,0.1005-2.066
		c0.1352-0.5316,0.5699-0.3051,0.8823-0.3215c0.4987-0.0274,1.0029,0.0091,1.5052,0.0201c0.7343-0.1461,1.0248,0.1553,0.8841,0.8841
		c0.0055,0.0292,0.0128,0.0585,0.0128,0.0877C6.8395,22.3376,7.351,21.9942,4.5013,21.9412z"/>
	<path class="st0" d="M5.7691,6.1381c0.9883-0.4658,1.107-0.4092,1.1088,0.696c0.0018,0.422,0,0.8421,0,1.4322
		C6.244,7.9539,5.97,7.499,5.5864,7.1794C5.0365,6.7209,5.1589,6.4249,5.7691,6.1381z"/>
	<path class="st0" d="M6.8779,22.2499v1.3956c-0.0018,1.2038-0.0475,1.2111-1.1417,0.7015c-0.601-0.2795-0.6631-0.5572-0.1699-0.981
		C5.9517,23.0354,6.2312,22.5842,6.8779,22.2499z"/>
	<path class="st0" d="M7.5081,7.8169c0.738-0.6741,1.4431-1.3883,2.1245-2.1208c0.5151-0.5535,0.9115-0.4914,1.2897,0.1187
		c0.316,0.316,0.6302,0.6302,0.9462,0.9463l0.548,0.548c1.2056,1.0431,1.2056,1.0431,0.1078,2.1409
		c-0.5553,0.5553-1.1344,1.0906-1.6568,1.6733c-0.4877,0.5444-0.9024,0.6558-1.3627-0.011
		c-0.1681-0.2448-0.3909-0.453-0.5882-0.6777c-0.2356-0.1334-0.4256-0.3124-0.5517-0.5535
		C8.1128,9.6418,7.8607,9.4007,7.6104,9.1614C6.9619,8.7595,6.9254,8.3485,7.5081,7.8169z"/>
	<path class="st0" d="M13.4267,21.9778c0.1005,0.3599-0.3708,0.6613-0.5846,0.8732c-0.5937,0.5955-1.1892,1.1929-1.7847,1.7865
		c-0.8275,0.8239-0.8458,0.8202-1.6532-0.1187c-0.3032-0.2996-0.6083-0.6028-0.9115-0.9024
		c-0.0037-0.0037-0.0055-0.0055-0.0091-0.0091c-0.232-0.2338-0.4713-0.4841-0.7033-0.7197
		c-0.0018,0.0018-0.0018,0.0018-0.0037,0.0037c-0.9353-0.7983-0.9353-0.7983-0.084-1.6495
		c0.5992-0.5992,1.1983-1.2002,1.7993-1.7993c0.4841-0.4823,0.696-0.7289,1.1691-0.2777c0.0658,0.0621,0.2923,0.2229,0.3489,0.3014
		c0.0037,0.0055,0.011,0.0128,0.0201,0.0201c0,0,0,0,0.0018,0.0018c0.0073,0.0037,0.0146,0.0091,0.0201,0.0146
		c0,0,0.0018,0.0037,0.0037,0.0037c0.0146,0.0128,0.0292,0.0274,0.0329,0.0384c0.0055,0.0055,0.011,0.0091,0.0183,0.0128
		c0.2631,0.2229,0.4622,0.5572,0.7197,0.8001c0,0,0,0.0018-0.0018,0.0018c0.263,0.2247,0.5498,0.4603,0.8111,0.7197
		c0.0822,0.0804,0.243,0.1863,0.3105,0.3014c0.0694,0.0548,0.1498,0.1425,0.2539,0.2521
		C13.2952,21.733,13.3902,21.8444,13.4267,21.9778z"/>
	<path class="st0" d="M13.8122,11.7225c-0.2247-1.054-0.4439-2.1062,0.1315-3.1255h0.0018c0.0018,0,0.0018,0,0.0037,0
		c0.9097-0.1498,1.8231-0.179,2.731,0.0183c0.0859,0.1041,0.1735,0.2082,0.2594,0.3124c0.0585,0.1352,0.0877,0.2722,0.0767,0.4001
		c0.084,0.643-0.0055,1.2933,0.0073,1.94c0.0073,0.2923-0.126,0.5882-0.4494,0.5809c-0.8056-0.0201-1.6221,0.1553-2.4223-0.0256
		C14.0387,11.8138,13.9254,11.7791,13.8122,11.7225z"/>
	<path class="st0" d="M15.1621,23.6017c0.2192,0.2156,0.1571,0.4512-0.1078,0.5955c-0.2923,0.1589-0.5919,0.3124-0.9024,0.4311
		c-0.3507,0.1352-0.5133-0.0402-0.5151-0.3927c-0.0018-0.6065,0-1.2111,0-2.0021C14.3456,22.65,14.7219,23.1651,15.1621,23.6017z"/>
	<path class="st0" d="M13.6478,6.909c0.0018-0.3653-0.2137-0.8476,0.3014-1.0851c0.4914,0.2028,1.0504,0.2649,1.2824,0.7033
		c0.2119,0.4055-0.2777,0.6193-0.5224,0.8476c-0.2923,0.2722-0.5389,0.8805-0.9298,0.7051
		C13.4212,7.921,13.6478,7.3127,13.6478,6.909z"/>
	<path class="st0" d="M16.9322,19.0075c0.179,0.8677,0.1717,1.7391,0.0037,2.6086c-0.1735,0.3763-0.5042,0.3727-0.8476,0.3635
		c-0.3946-0.011-0.7891-0.0018-1.1837-0.0018c-1.3043-0.0018-1.3043-0.0018-1.2385-1.3061
		c-0.0311-2.0423,0.2247-2.024,1.9272-2.0332c0.4348-0.0055,1.0285-0.0804,1.339,0.3635v0.0018
		C16.9322,19.0057,16.9322,19.0057,16.9322,19.0075z"/>
	<path class="st0" d="M19.6249,18.9326c0.0621,0.4603-0.2466,0.9298-0.5791,1.286c-0.1863,0.1991-0.3927,0.0183-0.548-0.1297
		c-0.4384-0.4165-0.7727-0.9097-1.2203-1.2678c0.0767-0.1187,0.0329-0.042,0.1096-0.1626c0.4439,0,0.8184-0.0292,1.2769-0.042
		C18.9837,18.6074,19.5719,18.5526,19.6249,18.9326z"/>
	<path class="st0" d="M17.4127,11.7608c-0.1425-0.3032,0.2375-0.4275,0.3891-0.6284c0.0895-0.1187,0.2009-0.2265,0.3197-0.3197
		c0.2704-0.2119,0.4567-0.7161,0.8586-0.5298c0.4165,0.1955,0.5042,0.7252,0.6595,1.1417c0.1133,0.3014-0.0822,0.4457-0.38,0.4512
		c-0.2722,0.0037-0.5444,0-0.8166,0c0,0.0018,0,0.0037,0,0.0037c-0.1206,0-0.243,0.0128-0.3617-0.0018
		C17.8511,11.8485,17.5241,12.0019,17.4127,11.7608z"/>
	<path class="st0" d="M19.8057,15.9002c-0.6814,0.6357-1.3226,1.3134-1.9838,1.9729c-0.8111,0.8092-0.8111,0.8074-1.6002-0.1334
		c-0.3124-0.3014-0.6266-0.6047-0.9389-0.9061c-0.2356-0.2466-0.4713-0.4932-0.7069-0.7417
		c-0.9353-0.7965-0.9353-0.7965-0.0877-1.6459c0.5973-0.5992,1.1947-1.1965,1.7939-1.7938
		c0.8001-0.8001,0.8001-0.8001,1.5838,0.1041v0.0018l0.0018,0.0018c0.3142,0.3142,0.6266,0.6284,0.9426,0.9426
		c0.3032,0.3051,0.6083,0.6083,0.9134,0.9134C20.3537,15.0051,20.3336,15.4088,19.8057,15.9002z"/>
	<path class="st0" d="M29.6792,14.2324c-0.1187,0.3672-0.1534,0.9262-0.8421,0.8567c-1.3609-0.1388-1.9802,0.3854-2.035,1.761
		c-0.0566,1.4559-0.0475,2.9173-0.0329,4.3769c0.0055,0.517-0.0986,0.7636-0.696,0.7727c-0.6211,0.0091-0.7654-0.2174-0.7581-0.7946
		c0.0274-2.1903,0.011-4.3787,0.011-6.5689c0-0.3873-0.0932-0.8403,0.5078-0.8695c0.2064-0.011,0.4567-0.0457,0.6485,0.0548
		c0.2685,0.1388,0.2466,0.4384,0.3343,0.6869c0.3489-0.1754,0.5809-0.5407,0.9718-0.7033c0.3982-0.1681,0.844-0.2283,1.2714-0.1553
		C29.365,13.7008,29.8071,13.8396,29.6792,14.2324z"/>
	<path class="st0" d="M37.726,14.6452c-0.0164,1.4614,0.011,2.9228-0.0091,4.3823c-0.0292,1.9875-1.3189,3.2315-3.2954,3.2114
		c-1.9546-0.0201-3.1858-1.2367-3.2187-3.1895c-0.0128-0.7617-0.0018-1.5217-0.0018-2.2834c0-0.7599,0.0256-1.5235-0.0091-2.2816
		c-0.0256-0.5772,0.2393-0.7453,0.7654-0.7325c0.4987,0.011,0.6942,0.2009,0.685,0.7161c-0.0219,1.4906-0.0329,2.9831,0.0091,4.4737
		c0.0329,1.2111,0.5572,1.8285,1.5217,1.9327c1.2586,0.1334,2.0094-0.4768,2.0715-1.8213c0.0694-1.4577,0.0475-2.9209,0.0347-4.3823
		c-0.0037-0.5425,0.0146-0.9499,0.7471-0.9262C37.6931,13.7666,37.7315,14.1356,37.726,14.6452z"/>
	<path class="st0" d="M47.4241,14.8261c-1.3938-1.5399-3.4872-1.6075-5.6282-0.0786c0-2.1592-0.0055-4.1924,0.0037-6.2237
		c0.0018-0.5206,0.0164-0.9572-0.7325-0.9444c-0.7234,0.011-0.7417,0.4055-0.7398,0.9462c0.0128,4.1704,0.0018,8.339,0.0146,12.5077
		c0.0018,0.3727-0.2192,0.9061,0.5005,0.9481c0.5973,0.0365,1.1107,0.0128,0.9536-0.8604c2.2505,1.5089,4.2508,1.4267,5.6428-0.1608
		C48.891,19.3034,48.8855,16.4409,47.4241,14.8261z M44.463,20.8817c-1.6258,0.0256-2.7346-1.1581-2.7584-2.9429
		c-0.0201-1.7299,1.065-2.9703,2.6214-2.994c1.5326-0.0219,2.7255,1.2458,2.7383,2.9082
		C47.077,19.5719,45.9718,20.858,44.463,20.8817z"/>
	<path class="st0" d="M55.0288,14.247c-0.1498,0.3453-0.1772,0.8768-0.7745,0.8659c-1.6459-0.0329-2.0204,0.2795-2.0971,1.9181
		c-0.0639,1.392-0.0603,2.7876-0.042,4.1814c0.0073,0.59-0.1863,0.78-0.7855,0.7873c-0.6467,0.0073-0.6521-0.3288-0.6448-0.7965
		c0.0164-1.1216,0.0037-2.2451,0.0037-3.3667c0-1.0924-0.0055-2.1848,0.0055-3.2753c0.0018-0.285-0.1169-0.6722,0.2978-0.7581
		c0.369-0.0749,0.8586-0.2101,1.0467,0.2557c0.1754,0.4366,0.2905,0.3288,0.5298,0.0895c0.5499-0.5498,1.2221-0.6229,1.9418-0.4494
		C54.7968,13.7684,55.2078,13.8305,55.0288,14.247z"/>
	<path class="st0" d="M58.401,21.3073c0.0073,0.6174-0.2905,0.6777-0.7855,0.6832c-0.5005,0.0055-0.7106-0.137-0.696-0.6723
		c0.0329-1.1234,0.0091-2.2487,0.0091-3.374c0-1.1563,0.0182-2.3126-0.0073-3.4671c-0.011-0.5078,0.1808-0.7179,0.6814-0.7234
		c0.5042-0.0055,0.8001,0.1206,0.7965,0.7124C58.3791,16.746,58.3736,19.0276,58.401,21.3073z"/>
	<path class="st0" d="M58.6914,10.7671c-0.0128,0.6101-0.4,0.9937-1.1143,0.9846c-0.6229-0.0457-0.9463-0.4439-0.9207-1.0705
		c0.0238-0.5992,0.4128-0.9462,1.0084-0.9462C58.3169,9.7368,58.7042,10.1569,58.6914,10.7671z"/>
	<path class="st0" d="M67.3885,21.8572c-0.3891,0.2978-1.1618,0.3526-1.6568-0.2174c-0.7599-0.8714-1.5162-1.7464-2.3017-2.5921
		c-0.2082-0.2247-0.3507-0.7015-0.738-0.5517c-0.422,0.1626-0.2338,0.6375-0.2466,0.981c-0.0238,0.6083-0.0329,1.2184,0,1.8249
		c0.0292,0.5078-0.1388,0.6942-0.6668,0.6923c-0.5298-0.0018-0.7672-0.1224-0.7654-0.7088c0.0201-4.291,0.0165-8.582,0.0018-12.873
		c-0.0018-0.5663,0.1535-0.833,0.7691-0.8312c0.623,0.0018,0.6631,0.3379,0.6613,0.8202c-0.0128,2.7017-0.0073,5.4017-0.0073,8.3646
		c0.9408-0.9517,1.7044-1.7299,2.4734-2.5026c0.2119-0.2137,0.3964-0.4969,0.7362-0.4914c0.38,0.0037,0.8714-0.1863,1.0997,0.2082
		c0.2393,0.411-0.232,0.6321-0.4695,0.8768c-0.654,0.6795-1.3079,1.3627-2.0039,1.9966c-0.3818,0.3489-0.3745,0.5772-0.0292,0.9462
		c0.9152,0.9755,1.8121,1.971,2.6689,2.9977C67.1656,21.1009,67.8616,21.4918,67.3885,21.8572z"/>
	<path class="st1" d="M4.0264,12.8532c-0.0438,0.1151-0.1352,0.2174-0.2247,0.3142c-0.7855,0.8348-1.5966,1.6477-2.435,2.4332
		c-0.1443,0.1352-0.3197,0.2722-0.5151,0.274C0.7821,15.8765,0.709,15.86,0.6359,15.8162c-0.011-0.0037-0.0201-0.0091-0.0311-0.0164
		c-0.0932-0.053-0.1644-0.1407-0.2503-0.2064c-0.0164-0.0128-0.0347-0.0256-0.0548-0.0365
		c-0.1809-0.1827-0.1315-0.3781-0.0511-0.4896c0.0146-0.0237,0.0329-0.0438,0.0511-0.0585
		c0.9042-0.8933,1.8267-1.7683,2.7054-2.6871c0.4256-0.4476,0.6905-0.3544,0.9499,0.126
		C4.0665,12.5993,4.072,12.7326,4.0264,12.8532z"/>
	<path class="st2" d="M47.4241,14.8261c-1.3938-1.5399-3.4872-1.6075-5.6282-0.0786c0-2.1592-0.0055-4.1924,0.0037-6.2237
		c0.0018-0.5206,0.0164-0.9572-0.7325-0.9444c-0.7234,0.011-0.7417,0.4055-0.7398,0.9462c0.0128,4.1704,0.0018,8.339,0.0146,12.5077
		c0.0018,0.3727-0.2192,0.9061,0.5005,0.9481c0.5973,0.0365,1.1107,0.0128,0.9536-0.8604c2.2505,1.5089,4.2508,1.4267,5.6428-0.1608
		C48.891,19.3034,48.8855,16.4409,47.4241,14.8261z M44.463,20.8817c-1.6258,0.0256-2.7346-1.1581-2.7584-2.9429
		c-0.0201-1.7299,1.065-2.9703,2.6214-2.994c1.5326-0.0219,2.7255,1.2458,2.7383,2.9082
		C47.077,19.5719,45.9718,20.858,44.463,20.8817z"/>
	<path class="st2" d="M67.3885,21.8572c-0.3891,0.2978-1.1618,0.3526-1.6568-0.2174c-0.7599-0.8714-1.5162-1.7464-2.3017-2.5921
		c-0.2082-0.2247-0.3507-0.7015-0.738-0.5517c-0.422,0.1626-0.2338,0.6375-0.2466,0.981c-0.0238,0.6083-0.0329,1.2184,0,1.8249
		c0.0292,0.5078-0.1388,0.6942-0.6668,0.6923c-0.5298-0.0018-0.7672-0.1224-0.7654-0.7088c0.0201-4.291,0.0165-8.582,0.0018-12.873
		c-0.0018-0.5663,0.1535-0.833,0.7691-0.8312c0.623,0.0018,0.6631,0.3379,0.6613,0.8202c-0.0128,2.7017-0.0073,5.4017-0.0073,8.3646
		c0.9408-0.9517,1.7044-1.7299,2.4734-2.5026c0.2119-0.2137,0.3964-0.4969,0.7362-0.4914c0.38,0.0037,0.8714-0.1863,1.0997,0.2082
		c0.2393,0.411-0.232,0.6321-0.4695,0.8768c-0.654,0.6795-1.3079,1.3627-2.0039,1.9966c-0.3818,0.3489-0.3745,0.5772-0.0292,0.9462
		c0.9152,0.9755,1.8121,1.971,2.6689,2.9977C67.1656,21.1009,67.8616,21.4918,67.3885,21.8572z"/>
	<path class="st2" d="M37.726,14.6452c-0.0164,1.4614,0.011,2.9228-0.0091,4.3823c-0.0292,1.9875-1.3189,3.2315-3.2954,3.2114
		c-1.9546-0.0201-3.1858-1.2367-3.2187-3.1895c-0.0128-0.7617-0.0018-1.5217-0.0018-2.2834c0-0.7599,0.0256-1.5235-0.0091-2.2816
		c-0.0256-0.5772,0.2393-0.7453,0.7654-0.7325c0.4987,0.011,0.6942,0.2009,0.685,0.7161c-0.0219,1.4906-0.0329,2.9831,0.0091,4.4737
		c0.0329,1.2111,0.5572,1.8285,1.5217,1.9327c1.2586,0.1334,2.0094-0.4768,2.0715-1.8213c0.0694-1.4577,0.0475-2.9209,0.0347-4.3823
		c-0.0037-0.5425,0.0146-0.9499,0.7471-0.9262C37.6931,13.7666,37.7315,14.1356,37.726,14.6452z"/>
	<path class="st2" d="M29.6792,14.2324c-0.1187,0.3672-0.1534,0.9262-0.8421,0.8567c-1.3609-0.1388-1.9802,0.3854-2.035,1.761
		c-0.0566,1.4559-0.0475,2.9173-0.0329,4.3769c0.0055,0.517-0.0986,0.7636-0.696,0.7727c-0.6211,0.0091-0.7654-0.2174-0.7581-0.7946
		c0.0274-2.1903,0.011-4.3787,0.011-6.5689c0-0.3873-0.0932-0.8403,0.5078-0.8695c0.2064-0.011,0.4567-0.0457,0.6485,0.0548
		c0.2685,0.1388,0.2466,0.4384,0.3343,0.6869c0.3489-0.1754,0.5809-0.5407,0.9718-0.7033c0.3982-0.1681,0.844-0.2283,1.2714-0.1553
		C29.365,13.7008,29.8071,13.8396,29.6792,14.2324z"/>
	<path class="st3" d="M55.0288,14.247c-0.1498,0.3453-0.1772,0.8768-0.7745,0.8659c-1.6459-0.0329-2.0204,0.2795-2.0971,1.9181
		c-0.0639,1.392-0.0603,2.7876-0.042,4.1814c0.0073,0.59-0.1863,0.78-0.7855,0.7873c-0.6467,0.0073-0.6521-0.3288-0.6448-0.7965
		c0.0164-1.1216,0.0037-2.2451,0.0037-3.3667c0-1.0924-0.0055-2.1848,0.0055-3.2753c0.0018-0.285-0.1169-0.6722,0.2978-0.7581
		c0.369-0.0749,0.8586-0.2101,1.0467,0.2557c0.1754,0.4366,0.2905,0.3288,0.5298,0.0895c0.5499-0.5498,1.2221-0.6229,1.9418-0.4494
		C54.7968,13.7684,55.2078,13.8305,55.0288,14.247z"/>
	<path class="st2" d="M58.401,21.3073c0.0073,0.6174-0.2905,0.6777-0.7855,0.6832c-0.5005,0.0055-0.7106-0.137-0.696-0.6723
		c0.0329-1.1234,0.0091-2.2487,0.0091-3.374c0-1.1563,0.0182-2.3126-0.0073-3.4671c-0.011-0.5078,0.1808-0.7179,0.6814-0.7234
		c0.5042-0.0055,0.8001,0.1206,0.7965,0.7124C58.3791,16.746,58.3736,19.0276,58.401,21.3073z"/>
	<path class="st4" d="M5.8147,16.1596c-0.601,0.601-1.2422,1.1691-1.792,1.8158c-0.4786,0.5645-0.7764,0.4658-1.2586-0.0237
		c-0.232-0.2338-0.4421-0.4932-0.6649-0.738c0.0164-0.0219,0.0329-0.0438,0.0511-0.0658c0.8841-1.1691,1.898-2.2104,3.0689-3.0908
		c0.0658-0.0493,0.1315-0.0986,0.1973-0.1461c0.1169,0.0932,0.243,0.1772,0.3489,0.2813
		C6.7719,15.175,6.7719,15.2042,5.8147,16.1596z"/>
	<path class="st5" d="M16.9359,21.616c-0.1735,0.3763-0.5042,0.3727-0.8476,0.3635c-0.3946-0.011-0.7892-0.0018-1.1837-0.0018
		c-1.3043-0.0018-1.3043-0.0018-1.2385-1.3061c0.6138-0.7069,1.2221-1.4194,1.9272-2.0332c0.4348-0.0055,1.0285-0.0804,1.339,0.3635
		v0.0018c0,0.0018,0,0.0018,0,0.0037C17.0656,19.877,17.0601,20.7465,16.9359,21.616z"/>
	<path class="st4" d="M12.5243,9.45c-0.5553,0.5553-1.1344,1.0906-1.6568,1.6733c-0.4877,0.5444-0.9024,0.6558-1.3627-0.011
		c-0.1681-0.2448-0.3909-0.453-0.5882-0.6777C9.8098,9.408,10.82,8.4964,11.779,7.5338c0.1681-0.1681,0.3562-0.3453,0.6375-0.2247
		C13.6222,8.3521,13.6222,8.3521,12.5243,9.45z"/>
	<path class="st6" d="M17.0163,9.3276c-0.0128,0.1279-0.0639,0.2484-0.1717,0.3544c-0.685,0.6704-1.339,1.3792-2.1007,1.9674
		c-0.1772,0.137-0.38,0.1955-0.5919,0.1735c-0.1133-0.0091-0.2265-0.0438-0.3398-0.1005c-0.2247-1.054-0.4439-2.1062,0.1315-3.1255
		h0.0018c0.0018,0,0.0018,0,0.0037,0c0.9115-0.1078,1.8213-0.1334,2.731,0.0183c0.0859,0.1041,0.1735,0.2082,0.2594,0.3124
		C16.998,9.0627,17.0272,9.1997,17.0163,9.3276z"/>
	<path class="st7" d="M19.7235,14.616c-0.8038,1.1929-1.9327,2.0715-2.9374,3.0707c-0.1498,0.1461-0.3562,0.2484-0.5645,0.053
		c-0.3124-0.3014-0.6266-0.6047-0.9389-0.9061c0.8951-0.9919,1.8779-1.8962,2.8205-2.8424c0.1863-0.1863,0.38-0.4183,0.7069-0.2886
		C19.1134,14.0077,19.4184,14.3109,19.7235,14.616z"/>
	<path class="st8" d="M12.9737,21.4937c-0.0201,0.1608-0.2977,0.3288-0.4037,0.4421c-0.7855,0.8366-1.5966,1.6495-2.435,2.4332
		c-0.2028,0.1882-0.4384,0.3379-0.7307,0.1498c-0.3032-0.2996-0.6083-0.6028-0.9115-0.9024
		c-0.0037-0.0037-0.0055-0.0055-0.0091-0.0091c1.1052-1.0924,2.1574-2.2341,3.3247-3.2626c0.0055,0.0055,0.011,0.0091,0.0164,0.0146
		c0.2631,0.2247,0.5498,0.4603,0.8111,0.7197c0.0822,0.0804,0.243,0.1863,0.3105,0.3014
		C12.9664,21.4169,12.9774,21.4553,12.9737,21.4937z"/>
	<path class="st9" d="M17.8931,12.8404c-0.8659,1.328-1.8815,2.5045-3.3174,3.2516c-0.9353-0.7965-0.9353-0.7965-0.0877-1.6459
		c0.5973-0.5992,1.1947-1.1965,1.7939-1.7938c0.8001-0.8001,0.8001-0.8001,1.5838,0.1041v0.0018l0.0018,0.0018
		C17.8767,12.7893,17.9022,12.8258,17.8931,12.8404z"/>
	<path class="st10" d="M11.8265,20.3574c0,0,0,0.0018-0.0018,0.0018c-0.9243,1.2751-1.9747,2.4241-3.332,3.2571
		c-0.0037-0.0037-0.0055-0.0055-0.0091-0.0091c-0.232-0.2338-0.4713-0.4841-0.7033-0.7197l-0.0018-0.0018
		c-0.0274-0.0566-0.0384-0.1407-0.0091-0.1808c0.8805-1.233,2.0788-2.1245,3.1657-3.173c0.0457-0.0438,0.0731-0.053,0.095-0.0457
		c0,0,0,0,0.0018,0.0018c0.0073,0.0037,0.0146,0.0091,0.0201,0.0146c0,0,0.0018,0.0037,0.0037,0.0037
		c0.011,0.0128,0.0201,0.0274,0.0329,0.0384c0.0055,0.0055,0.011,0.0091,0.0183,0.0128
		C11.3698,19.7802,11.569,20.1145,11.8265,20.3574z"/>
	<path class="st11" d="M11.0903,19.5518c-0.0347,0.3727-0.8878,0.8129-1.1143,1.0285c-0.7709,0.7307-1.5107,1.4979-2.1957,2.3072
		c-0.0018,0.0018-0.0018,0.0018-0.0037,0.0037c-0.9353-0.7983-0.9353-0.7983-0.084-1.6495
		c0.5992-0.5992,1.1983-1.2002,1.7993-1.7993c0.4841-0.4823,0.696-0.7289,1.1691-0.2777c0.0658,0.0621,0.2923,0.2229,0.3489,0.3014
		c0.0037,0.0055,0.011,0.0128,0.0201,0.0201c0,0,0,0,0.0018,0.0018c0.0055,0.0055,0.0128,0.011,0.0201,0.0146
		c0,0,0.0018,0.0037,0.0037,0.0037c0.0146,0.0128,0.0292,0.0274,0.0329,0.0384C11.0903,19.5482,11.0903,19.55,11.0903,19.5518z"/>
	<path class="st10" d="M18.8101,13.7026c-1.0029,0.727-1.7573,1.7117-2.6652,2.5373c-0.2594,0.2375-0.4439,0.5864-0.8622,0.5937
		c-0.2356-0.2466-0.4713-0.4932-0.7069-0.7417c1.1545-1.054,2.2999-2.1172,3.29-3.3338l0.0018,0.0018
		C18.1817,13.0742,18.4941,13.3884,18.8101,13.7026z"/>
	<path class="st1" d="M6.8468,10.4419c-0.8293,0.9408-1.7135,1.7427-3.1182,1.2933c-0.1078-0.0164-0.1534-0.0822-0.1443-0.1882
		c-0.106-0.137-0.0877-0.2923-0.0749-0.4457c0.0018-0.0219,0.0037-0.0457,0.0055-0.0694c0.0311-0.0329,0.0621-0.0639,0.095-0.0968
		c0.0037-0.0055,0.0091-0.0091,0.0128-0.0146c0.7471-0.7691,1.4924-1.5418,2.2798-2.2706c0.0037-0.0037,0.0091-0.0091,0.0128-0.011
		c0.0365-0.0347,0.0731-0.0694,0.1096-0.1023C6.0431,8.5348,6.0613,8.5348,6.0796,8.533c0.1608-0.0091,0.3215-0.0201,0.4695,0.0676
		h0.0018C7.225,9.1212,6.7427,9.8281,6.8468,10.4419z"/>
	<path class="st12" d="M11.8685,6.761c-0.8129,1.1454-1.8487,2.0733-2.9173,2.9666C8.7941,9.8592,8.5968,9.9724,8.3648,9.8811
		C8.1128,9.6418,7.8607,9.4007,7.6104,9.1614c0.9243-1.2933,2.0642-2.3729,3.3119-3.3466
		C11.2383,6.1308,11.5525,6.445,11.8685,6.761z"/>
	<path class="st13" d="M12.8422,22.8509c-0.5937,0.5955-1.1892,1.1929-1.7847,1.7865c-0.8275,0.8239-0.8458,0.8202-1.6532-0.1187
		c0.6649-0.1078,0.9773-0.6814,1.3719-1.1052c0.327-0.3526,0.7051-0.6485,1.0522-0.981c0.2649-0.2503,0.4348-0.5754,0.6485-0.8677
		c0.2046-0.2777,0.3124-0.3069,0.4695-0.1845c0.0694,0.0548,0.1498,0.1425,0.2539,0.2521c0.095,0.1005,0.19,0.2119,0.2265,0.3453
		C13.5272,22.3376,13.0559,22.639,12.8422,22.8509z"/>
	<path class="st14" d="M5.4165,13.9109c-0.053,0.0603-0.1078,0.1224-0.1608,0.1827c-0.9663,1.0869-1.9838,2.1227-3.0927,3.0653
		c-0.0201,0.0183-0.042,0.0365-0.0639,0.0548c-0.2685-0.2338-0.5042-0.4622-0.7307-0.7307
		c0.0146-0.0201,0.0311-0.0402,0.0457-0.0603c0.8878-1.1728,1.9053-2.2177,3.0799-3.1c0.0639-0.0475,0.1279-0.095,0.1918-0.1425
		C4.9854,13.3665,5.2284,13.6095,5.4165,13.9109z"/>
	<path class="st13" d="M19.8057,15.9002c-0.6814,0.6357-1.3226,1.3134-1.9838,1.9729c-0.8111,0.8092-0.8111,0.8074-1.6002-0.1334
		c0.7709-0.2448,1.1308-0.9755,1.7025-1.4559c0.6266-0.5261,1.0906-1.2276,1.7993-1.6678
		C20.3537,15.0051,20.3336,15.4088,19.8057,15.9002z"/>
	<path class="st1" d="M10.9223,5.8148C9.9267,7.0369,8.785,8.1146,7.6104,9.1614c-0.6485-0.4019-0.685-0.8129-0.1023-1.3445
		c0.738-0.6741,1.4431-1.3883,2.1245-2.1208C10.1478,5.1425,10.5441,5.2047,10.9223,5.8148z"/>
	<path class="st15" d="M4.6858,13.1802c-0.053,0.0585-0.1041,0.1187-0.1571,0.1772c-0.9682,1.0906-1.9893,2.1318-3.1036,3.0762
		c-0.0183,0.0164-0.0384,0.0329-0.0566,0.0493c-0.3105-0.2174-0.517-0.4402-0.7325-0.6668c-0.011-0.011-0.0219-0.0201-0.0311-0.0311
		c0.042-0.0073,0.0822-0.0164,0.1206-0.0256c0.0018,0,0.0018,0,0.0018,0c0.5864-0.1589,0.9115-0.7179,1.2805-1.1143
		c0.6083-0.6558,1.4121-1.1417,1.8359-1.9601c0.042-0.0767,0.0785-0.1553,0.1114-0.2375
		C4.2547,12.6358,4.4977,12.8788,4.6858,13.1802z"/>
	<path class="st16" d="M6.8468,19.5756c-0.7343,0.8348-1.5381,1.602-2.3455,2.3656c-0.749,0.179-1.0906-0.1114-1.0266-0.8823
		c0.0566-0.6887-0.1114-1.3847,0.1005-2.066c0.4439,0.4896,0.1169,1.1052,0.3142,1.7792c0.7782-0.6613,1.2732-1.5363,2.0733-2.0807
		C6.697,18.5453,6.9875,18.8467,6.8468,19.5756z"/>
	<path class="st17" d="M17.0236,11.2676c0.0073,0.2923-0.126,0.5882-0.4494,0.5809c-0.8056-0.0201-1.6221,0.1553-2.4223-0.0256
		c-0.1133-0.0256-0.2265-0.0585-0.3398-0.1005c0.5772,0.1388,0.9024-0.2722,1.2075-0.6193
		c0.6394-0.7252,1.6276-1.1454,1.9199-2.1756c0.0347,0.1334,0.0603,0.2667,0.0767,0.4001
		C17.1003,9.9706,17.0108,10.6209,17.0236,11.2676z"/>
	<path class="st18" d="M12.4165,7.3091c-1.0138,0.738-1.7811,1.7354-2.6999,2.572c-0.2411,0.2192-0.411,0.5462-0.8001,0.5535
		c-0.2356-0.1334-0.4256-0.3124-0.5517-0.5535c1.0869-0.6375,1.8359-1.6477,2.7456-2.4825c0.243-0.2229,0.5042-0.4256,0.7581-0.6375
		L12.4165,7.3091z"/>
	<path class="st19" d="M5.9627,18.6915c-0.5992,0.9481-1.3098,1.7884-2.3875,2.6141v-2.3126
		c0.1352-0.5316,0.5699-0.3051,0.8823-0.3215C4.9562,18.644,5.4603,18.6805,5.9627,18.6915z"/>
	<path class="st20" d="M4.5013,21.9412c0.5645-1.0065,1.3627-1.7774,2.3455-2.3656c0.0055,0.0292,0.0128,0.0585,0.0128,0.0877
		C6.8395,22.3376,7.351,21.9942,4.5013,21.9412z"/>
	<path class="st21" d="M58.6914,10.7671c-0.0128,0.6101-0.4,0.9937-1.1143,0.9846c-0.6229-0.0457-0.9463-0.4439-0.9207-1.0705
		c0.0238-0.5992,0.4128-0.9462,1.0084-0.9462C58.3169,9.7368,58.7042,10.1569,58.6914,10.7671z"/>
	<path class="st22" d="M5.959,8.6517c-0.59,0.9663-1.3682,1.7445-2.3346,2.3346c-0.0055-0.0164-0.011-0.0347-0.0146-0.0511
		c-0.2137-0.7088-0.1352-1.4212-0.0201-2.1355C3.5934,8.6846,3.6501,8.6188,3.767,8.6134c0.7179-0.1096,1.4358-0.1918,2.1482,0.0256
		C5.9298,8.6426,5.9444,8.6462,5.959,8.6517z"/>
	<path class="st23" d="M14.7091,7.3748c-0.2923,0.2722-0.5389,0.8805-0.9298,0.7051c-0.358-0.1589-0.1315-0.7672-0.1315-1.1709
		c0.0018-0.3653-0.2137-0.8476,0.3014-1.0851c0.4914,0.2028,1.0504,0.2649,1.2824,0.7033
		C15.4435,6.9327,14.9539,7.1465,14.7091,7.3748z"/>
	<path class="st24" d="M3.4089,18.6586c-0.5316,0.548-0.8933,0.8951-1.2257,1.2678c-0.464,0.5224-0.7453,0.4475-1.0412-0.1845
		c-0.4859-1.0376-0.4804-1.0814,0.6832-1.0833H3.4089z"/>
	<path class="st25" d="M3.4254,11.8795H1.9019c-1.233-0.0018-1.2623-0.084-0.7179-1.1929c0.2813-0.5754,0.5517-0.5572,0.9408-0.1498
		C2.4882,10.9187,2.8573,11.2932,3.4254,11.8795z"/>
	<path class="st26" d="M19.2595,11.8759c-0.2722,0.0037-0.5444,0-0.8166,0c0,0.0018,0,0.0037,0,0.0037
		c-0.1206,0-0.243,0.0128-0.3617-0.0018c-0.2302-0.0292-0.5572,0.1242-0.6686-0.1169c-0.1425-0.3032,0.2375-0.4275,0.3891-0.6284
		c0.0895-0.1187,0.2009-0.2265,0.3197-0.3197c0.2704-0.2119,0.4567-0.7161,0.8586-0.5298c0.4165,0.1955,0.5042,0.7252,0.6595,1.1417
		C19.7527,11.7261,19.5573,11.8704,19.2595,11.8759z"/>
	<path class="st27" d="M6.8779,8.2663C6.244,7.9539,5.97,7.499,5.5864,7.1794C5.0365,6.7209,5.1589,6.4249,5.7691,6.1381
		c0.9883-0.4658,1.107-0.4092,1.1088,0.696C6.8797,7.2561,6.8779,7.6762,6.8779,8.2663z"/>
	<path class="st28" d="M19.0458,20.2186c-0.1863,0.1991-0.3927,0.0183-0.548-0.1297c-0.4384-0.4165-0.7727-0.9097-1.2203-1.2678
		c0.0767-0.1187,0.0329-0.042,0.1096-0.1626c0.4439,0,0.8184-0.0292,1.2769-0.042c0.3197-0.0091,0.9079-0.0639,0.9609,0.316
		C19.6869,19.3929,19.3782,19.8624,19.0458,20.2186z"/>
	<path class="st29" d="M-97.7701-4.8186v1.6519c-0.0021,1.4249-0.0562,1.4335-1.3514,0.8303
		c-0.7114-0.3308-0.7849-0.6595-0.2011-1.1611C-98.8664-3.8888-98.5355-4.4229-97.7701-4.8186z"/>
	<path class="st30" d="M15.0544,24.1972c-0.2923,0.1589-0.5919,0.3124-0.9024,0.4311c-0.3507,0.1352-0.5133-0.0402-0.5151-0.3927
		c-0.0018-0.6065,0-1.2111,0-2.0021c0.7088,0.4165,1.0851,0.9316,1.5253,1.3682C15.3813,23.8173,15.3192,24.0529,15.0544,24.1972z"
		/>
	<path class="st31" d="M15.7138,18.6385c-0.464,0.8567-1.191,1.5692-2.0478,2.0332c-0.0311-2.0423,0.2247-2.024,1.9272-2.0332
		H15.7138z"/>
	<path class="st32" d="M5.4823,11.8649c-0.5846-0.011-1.1892,0.1662-1.7537-0.1297c0.9134,0.053,1.7774,0.0183,2.3309-0.9079
		c0.1461-0.2448,0.4786-0.3471,0.7873-0.3854C6.9235,11.8741,6.9217,11.8942,5.4823,11.8649z"/>
	<path class="st17" d="M16.6802,8.6152c-0.9097-0.0055-1.8213-0.011-2.731-0.0183C14.8589,8.4471,15.7723,8.4179,16.6802,8.6152z"/>
	<path class="st33" d="M6.5491,8.6005C6.3536,8.617,6.1563,8.6334,5.959,8.6517c-0.0183,0-0.0384,0-0.0566-0.0018
		C5.19,8.6389,4.4794,8.6261,3.767,8.6133C4.536,8.4471,5.3087,8.4398,6.0796,8.533C6.2367,8.5512,6.392,8.575,6.5491,8.6005z"/>
	<path class="st33" d="M3.6245,10.9863c-0.0128,0.1863-0.0256,0.3745-0.0402,0.5608c-0.0292-0.148-0.0548-0.2959-0.0749-0.4457
		c-0.1041-0.7672-0.084-1.5345,0.0804-2.3017c0.011,0.7069,0.0237,1.4139,0.0329,2.1208
		C3.6245,10.9424,3.6245,10.9643,3.6245,10.9863z"/>
	<path class="st34" d="M16.9359,21.616c-0.0018-0.8695-0.0018-1.7391-0.0037-2.6086C17.1113,19.8752,17.104,20.7465,16.9359,21.616z
		"/>
</g>
</svg>
